<?xml version="1.0"?>
<svg width="128" height="130" xmlns="http://www.w3.org/2000/svg" xmlns:svg="http://www.w3.org/2000/svg" data-name="Layer 1">
 <title>83 Web Icon Set 42 expanded</title>
 <g class="layer">
  <title>Layer 1</title>
  <path d="m11,56a2,2 0 0 0 2,2l6.54,0l14.17,51.09a6.71,6.71 0 0 0 6.44,4.91l0.58,0a8,8 0 1 0 10.54,0l21.46,0a8,8 0 1 0 10.54,0l9.73,0a2,2 0 0 0 0,-4l-52.85,0a2.69,2.69 0 0 1 -2.59,-1.98l-0.61,-2.21a4.88,4.88 0 0 0 1.23,0.19l39.65,0a5.16,5.16 0 0 0 4.98,-3.52l10.99,-36.31a4.58,4.58 0 0 0 -0.73,-4.09a5.3,5.3 0 0 0 -4.25,-2.08l-61.64,0a5.44,5.44 0 0 0 -2.73,0.74l-1.46,-5.27a2,2 0 0 0 -2.08,-1.46c-0.03,0 -0.06,-0.01 -0.08,-0.01l-7.83,0a2,2 0 0 0 -2,2zm35,68a4,4 0 1 1 4,-4a4,4 0 0 1 -4,4zm32,0a4,4 0 1 1 4,-4a4,4 0 0 1 -4,4zm-41.98,-23.34l-4.39,-15.66l13.46,0l3.9,17l-10.81,0a4.01,4.01 0 0 1 -2.16,-1.34zm28.01,-15.66l-2.78,17l-8.16,0l-3.9,-17l14.84,0zm-15.75,-4l-3.9,-17l23.09,0l-2.78,17l-16.41,0zm30.7,20.32a1.19,1.19 0 0 1 -1.15,0.68l-12.53,0l2.79,-17l15.83,0l-4.94,16.32zm10.88,-36.86a0.58,0.58 0 0 1 0.11,0.55l-4.84,15.99l-16.39,0l2.78,-17l17.3,0a1.29,1.29 0 0 1 1.04,0.46zm-63.72,0a1.28,1.28 0 0 1 1.04,-0.46l13.1,0l3.89,17l-13.66,0l-4.48,-15.99a0.58,0.58 0 0 1 0.11,-0.55z" id="svg_1"/>
  <path d="m17.64,21.87l5.15,25.89a3.66,3.66 0 0 0 1.77,2.46a4.19,4.19 0 0 0 2.13,0.57a4.5,4.5 0 0 0 1.36,-0.21l22.53,-7.1a4.32,4.32 0 0 0 2.66,-2.31a3.66,3.66 0 0 0 0.03,-3.02l-10.63,-24.17a4.07,4.07 0 0 0 -5.02,-2.07l-2.81,0.89l-0.6,-1.91a6,6 0 1 0 -11.44,3.61l0.6,1.91l-2.81,0.88a4.07,4.07 0 0 0 -2.92,4.58zm8.94,-8.57a2,2 0 1 1 3.82,-1.21l0.6,1.91l-3.82,1.2l-0.6,-1.9zm-4.82,7.81l2.81,-0.89l0.59,1.87a2,2 0 0 0 2.13,3.18l1.91,-0.58a2,2 0 0 0 -0.25,-3.88l-0.56,-1.79l3.81,-1.21l0.6,1.91a1.98,1.98 0 0 0 0.27,0.53a1.99,1.99 0 0 0 2.29,2.96l1.91,-0.59a2,2 0 0 0 -0.61,-3.9a1.96,1.96 0 0 0 -0.04,-0.2l-0.6,-1.91l2.8,-0.88a0.44,0.44 0 0 1 0.21,-0.02l10.5,23.88a0.5,0.5 0 0 1 -0.15,0.07l-22.53,7.11a0.61,0.61 0 0 1 -0.17,0.02l-5.1,-25.58a0.47,0.47 0 0 1 0.18,-0.1z" id="svg_2"/>
  <path d="m112.79,30.66a4.97,4.97 0 0 0 -3.01,-2.45a5.07,5.07 0 0 0 -6.22,3.1l-0.29,0.85l-1.69,-0.5a3.61,3.61 0 0 0 -4.31,1.74l-7.98,16.88a3.11,3.11 0 0 0 -0.01,2.61a3.68,3.68 0 0 0 2.35,1.99l16.9,4.96a4.02,4.02 0 0 0 1.13,0.16a3.71,3.71 0 0 0 1.9,-0.51a3.16,3.16 0 0 0 1.51,-2.06l3.86,-18.09a3.43,3.43 0 0 0 -2.56,-3.92l-1.54,-0.45l0.24,-0.69a4.59,4.59 0 0 0 -0.28,-3.62zm-20.59,22.3l0.56,-1.92l0,0l-0.56,1.92zm20.68,-13.81l-3.58,16.75l-16.01,-4.71l7.38,-15.63l1.32,0.39l-0.24,0.69a2,2 0 0 0 3.79,1.28l0.29,-0.84l1.88,0.55l-0.24,0.69a2,2 0 1 0 3.79,1.28l0.29,-0.84l1.33,0.39zm-5.77,-5.86l0.23,-0.69a1.06,1.06 0 0 1 1.31,-0.55a0.93,0.93 0 0 1 0.59,0.45a0.6,0.6 0 0 1 0.04,0.49l-0.29,0.85l-1.88,-0.55z" id="svg_3"/>
  <path d="m53,13.77l0,0.46a4.77,4.77 0 0 0 4,4.69l0,14.43a4.66,4.66 0 0 0 4.65,4.65l20.7,0a4.66,4.66 0 0 0 4.65,-4.65l0,-14.43a4.77,4.77 0 0 0 4,-4.69l0,-0.46a4.78,4.78 0 0 0 -4.77,-4.77l-6.56,0c0.19,-0.15 0.37,-0.29 0.53,-0.44a7.81,7.81 0 0 0 2.8,-5.23a3.28,3.28 0 0 0 -1.01,-2.44c-1.77,-1.66 -4.98,-0.97 -7.81,1.67a9.67,9.67 0 0 0 -2.18,3.49a9.68,9.68 0 0 0 -2.18,-3.49c-2.83,-2.64 -6.04,-3.33 -7.81,-1.67a3.28,3.28 0 0 0 -1.01,2.43a7.8,7.8 0 0 0 2.8,5.24c0.16,0.15 0.35,0.29 0.53,0.44l-6.56,0a4.77,4.77 0 0 0 -4.77,4.77zm8,19.58l0,-14.31l9,0l0,14.96l-8.35,0a0.65,0.65 0 0 1 -0.65,-0.65zm22,0a0.65,0.65 0 0 1 -0.65,0.65l-8.35,0l0,-14.96l9,0l0,14.31zm4,-19.58l0,0.46a0.77,0.77 0 0 1 -0.77,0.77l-28.46,0a0.77,0.77 0 0 1 -0.77,-0.77l0,-0.46a0.77,0.77 0 0 1 0.77,-0.77l28.46,0a0.77,0.77 0 0 1 0.77,0.77zm-10.09,-8.28a6.83,6.83 0 0 1 1.67,-1.18a6.66,6.66 0 0 1 -1.11,1.32a7.59,7.59 0 0 1 -1.32,0.94a4.16,4.16 0 0 1 0.76,-1.08zm-9.82,-0.01a4.19,4.19 0 0 1 0.76,1.09a7.7,7.7 0 0 1 -1.32,-0.94a6.69,6.69 0 0 1 -1.11,-1.32a6.86,6.86 0 0 1 1.67,1.17z" id="svg_4"/>
 </g>
</svg>